<?xml version="1.0" encoding="UTF-8" standalone="no"?>
<!-- Created with Inkscape (http://www.inkscape.org/) -->

<svg
   xmlns:dc="http://purl.org/dc/elements/1.1/"
   xmlns:cc="http://creativecommons.org/ns#"
   xmlns:rdf="http://www.w3.org/1999/02/22-rdf-syntax-ns#"
   xmlns:svg="http://www.w3.org/2000/svg"
   xmlns="http://www.w3.org/2000/svg"
   xmlns:sodipodi="http://sodipodi.sourceforge.net/DTD/sodipodi-0.dtd"
   xmlns:inkscape="http://www.inkscape.org/namespaces/inkscape"
   version="1.1"
   id="svg33197"
   width="626"
   height="626"
   viewBox="0 0 626 626"
   sodipodi:docname="sound.svg"
   inkscape:version="0.92.3 (2405546, 2018-03-11)">
  <metadata
     id="metadata33203">
    <rdf:RDF>
      <cc:Work
         rdf:about="">
        <dc:format>image/svg+xml</dc:format>
        <dc:type
           rdf:resource="http://purl.org/dc/dcmitype/StillImage" />
        <dc:title></dc:title>
      </cc:Work>
    </rdf:RDF>
  </metadata>
  <defs
     id="defs33201" />
  <sodipodi:namedview
     pagecolor="#ffffff"
     bordercolor="#666666"
     borderopacity="1"
     objecttolerance="10"
     gridtolerance="10"
     guidetolerance="10"
     inkscape:pageopacity="0"
     inkscape:pageshadow="2"
     inkscape:window-width="2560"
     inkscape:window-height="1377"
     id="namedview33199"
     showgrid="false"
     inkscape:zoom="0.96485623"
     inkscape:cx="123.4767"
     inkscape:cy="145.6176"
     inkscape:window-x="-8"
     inkscape:window-y="-8"
     inkscape:window-maximized="1"
     inkscape:current-layer="svg33197" />
  <path
     style="fill:#ffffff"
     d="m 98.145696,632.35038 c -23.00933,-4.28878 -33.09227,-7.83215 -45.5,-15.98971 -14.05457,-9.24029 -22.72913,-19.56213 -27.90468,-33.20374 -3.96647,-10.45474 -4.88086,-16.4757 -4.34669,-28.62165 2.14436,-48.75897 49.86746,-93.64063 110.751374,-104.15721 20.69196,-3.57416 47.61323,-1.94668 60.71779,3.67059 2.4464,1.04865 4.62283,1.90664 4.83649,1.90664 0.21366,0 0.52826,-66.0375 0.6991,-146.75 l 0.31061,-146.75 2.22477,-6.5 c 7.3671,-21.52414 22.49945,-40.30201 40.61136,-50.39498 5.48215,-3.05496 25.07615,-9.728127 54.59987,-18.595186 5.775,-1.734445 13.875,-4.218101 18,-5.519235 4.125,-1.301134 17.4,-5.356633 29.5,-9.012221 12.1,-3.655588 31.9,-9.704667 44,-13.442398 12.1,-3.737731 28.3,-8.675068 36,-10.97186 7.7,-2.296792 15.8,-4.787416 18,-5.534719 2.2,-0.747304 13.225,-4.152888 24.5,-7.567964 11.275,-3.415077 27.025,-8.226192 35,-10.691366 7.975,-2.465175 15.85,-4.893726 17.5,-5.396781 6.53114,-1.991225 17.2568,-3.870817 22,-3.855336 11.23661,0.03667 24.56583,5.552313 31.24835,12.930583 4.53411,5.006171 9.27258,15.793075 10.25313,23.340738 1.26999,9.775629 1.27416,398.266275 0.004,410.315295 -2.17636,20.65202 -12.16122,39.79323 -29.96586,57.44527 -26.61956,26.39139 -63.09952,40.94921 -102.61513,40.94992 -61.23124,10e-4 -102.398,-37.73576 -94.97071,-87.05802 1.72023,-11.42348 3.44472,-16.83332 8.72301,-27.36471 15.88811,-31.70038 52.8753,-57.99195 92.82281,-65.98116 12.13709,-2.42733 29.86437,-3.8593 39,-3.15035 11.30649,0.87743 26.88951,4.0871 34.13335,7.03053 3.84211,1.56119 5.87297,1.97665 5.88496,1.20389 0.0101,-0.64897 0.002,-45.49319 -0.0181,-99.65383 -0.041,-110.77716 0.48646,-103.26116 -7.53924,-107.42613 -6.3571,-3.29904 -16.14555,-2.05701 -34.46092,4.37266 -1.375,0.4827 -7.9,2.52197 -14.5,4.53171 -6.6,2.00974 -14.475,4.49143 -17.5,5.51487 -3.025,1.02343 -10.9,3.5019 -17.5,5.5077 -6.6,2.0058 -15.375,4.71536 -19.5,6.02125 -4.125,1.30588 -15.375,4.83867 -25,7.85064 -9.625,3.01196 -24.7,7.74265 -33.5,10.51264 -8.8,2.76999 -33.775,10.61468 -55.5,17.43264 -42.54222,13.35103 -48.18077,15.78887 -55.90814,24.17208 -2.34854,2.54787 -5.24248,6.73654 -6.43097,9.30816 l -2.16054,4.67567 -0.54079,131 c -0.5312,128.67593 -0.57747,131.12419 -2.6079,138 -7.85009,26.58339 -23.92476,47.35536 -49.35131,63.7726 -22.45534,14.49883 -46.79184,21.67451 -75.49999,22.26138 -8.8,0.1799 -17.125004,0.11739 -18.500004,-0.1389 z"
     id="path33207"
     inkscape:connector-curvature="0"
     inkscape:export-xdpi="85.489609"
     inkscape:export-ydpi="85.489609"
     inkscape:export-filename="C:\Users\steez\workspace\LD41\Assets\art\NewArt\nosound.png" />
  <rect
     style="fill:#ff0000;fill-opacity:1;stroke:none;stroke-width:6.03519917;stroke-linejoin:miter;stroke-miterlimit:4;stroke-dasharray:none;stroke-opacity:1"
     id="rect33209"
     width="885.22784"
     height="36.948078"
     x="-511.26172"
     y="438.20688"
     transform="matrix(0.64475588,-0.76438855,0.79137704,0.61132837,0,0)"
     inkscape:export-xdpi="85.489609"
     inkscape:export-ydpi="85.489609"
     inkscape:export-filename="C:\Users\steez\workspace\LD41\Assets\art\NewArt\nosound.png" />
  <path
     style="fill:#ffffff"
     d="m -565.1656,635.45971 c -23.00933,-4.28878 -33.09227,-7.83215 -45.5,-15.98971 -14.05457,-9.24029 -22.72913,-19.56213 -27.90468,-33.20374 -3.96647,-10.45474 -4.88086,-16.4757 -4.34669,-28.62165 2.14436,-48.75897 49.86746,-93.64063 110.75137,-104.15721 20.69196,-3.57416 47.61323,-1.94668 60.71779,3.67059 2.4464,1.04865 4.62283,1.90664 4.83649,1.90664 0.21366,0 0.52826,-66.0375 0.6991,-146.75 l 0.31061,-146.75 2.22477,-6.5 c 7.3671,-21.52414 22.49945,-40.30201 40.61136,-50.39498 5.48215,-3.05496 25.07615,-9.728134 54.59987,-18.595194 5.775,-1.73444 13.875,-4.2181 18,-5.519233 4.125,-1.301134 17.4,-5.356633 29.5,-9.012221 12.1,-3.655588 31.9,-9.704667 44,-13.442398 12.1,-3.737726 28.3,-8.675066 36,-10.971856 7.7,-2.2968 15.8,-4.78742 18,-5.53472 2.2,-0.74731 13.225,-4.15289 24.5,-7.56797 11.275,-3.41507 27.025,-8.22619 35,-10.69136 7.975,-2.46518 15.85,-4.89373 17.5,-5.39678 6.53114,-1.99123 17.2568,-3.87082 22,-3.85534 11.23661,0.0367 24.565835,5.55231 31.248355,12.93058 4.534113,5.00617 9.272583,15.79308 10.253133,23.34074 1.26999,9.77563 1.27416,398.266282 0.004,410.315302 -2.17636,20.65202 -12.161223,39.79323 -29.965868,57.44527 -26.61956,26.39139 -63.09952,40.94921 -102.61513,40.94992 -61.23124,10e-4 -102.398,-37.73576 -94.97071,-87.05802 1.72023,-11.42348 3.44472,-16.83332 8.72301,-27.36471 15.88811,-31.70038 52.8753,-57.99195 92.82281,-65.98116 12.13709,-2.42733 29.86437,-3.8593 39,-3.15035 11.30649,0.87743 26.88951,4.0871 34.13335,7.03053 3.84211,1.56119 5.87297,1.97665 5.88496,1.20389 0.0101,-0.64897 0.002,-45.49319 -0.0181,-99.65383 -0.041,-110.77716 0.48646,-103.26116 -7.53924,-107.42613 -6.3571,-3.29904 -16.14555,-2.05701 -34.46092,4.37266 -1.375,0.4827 -7.9,2.52197 -14.5,4.53171 -6.6,2.00974 -14.475,4.49143 -17.5,5.51487 -3.025,1.02343 -10.9,3.5019 -17.5,5.5077 -6.6,2.0058 -15.375,4.71536 -19.5,6.02125 -4.125,1.30588 -15.375,4.83867 -25,7.85064 -9.625,3.01196 -24.7,7.74265 -33.5,10.51264 -8.8,2.76999 -33.775,10.61468 -55.5,17.43264 -42.54222,13.35103 -48.18077,15.78887 -55.90814,24.17208 -2.34854,2.54787 -5.24248,6.73654 -6.43097,9.30816 l -2.16054,4.67567 -0.54079,131 c -0.5312,128.67593 -0.57747,131.12419 -2.6079,138 -7.85009,26.58339 -23.92476,47.35536 -49.35131,63.7726 -22.45534,14.49883 -46.79184,21.67451 -75.49999,22.26138 -8.8,0.1799 -17.125,0.11739 -18.5,-0.1389 z"
     id="path33207-9"
     inkscape:connector-curvature="0"
     inkscape:export-xdpi="85.489609"
     inkscape:export-ydpi="85.489609"
     inkscape:export-filename="C:\Users\steez\workspace\LD41\Assets\art\NewArt\sound.png" />
</svg>
